<svg xmlns="http://www.w3.org/2000/svg" viewBox="0 0 60 40" role="img"><rect x="0" y="0.00" width="60" height="8.00" fill="#B22234"/><rect x="0" y="8.00" width="60" height="8.00" fill="#FFFFFF"/><rect x="0" y="16.00" width="60" height="8.00" fill="#B22234"/><rect x="0" y="24.00" width="60" height="8.00" fill="#FFFFFF"/><rect x="0" y="32.00" width="60" height="8.00" fill="#B22234"/><rect x="0" y="0" width="24" height="22.8" fill="#3C3B6E"/><circle cx="3" cy="4" r="0.9" fill="#FFFFFF"/><circle cx="9" cy="4" r="0.9" fill="#FFFFFF"/><circle cx="15" cy="4" r="0.9" fill="#FFFFFF"/><circle cx="21" cy="4" r="0.9" fill="#FFFFFF"/><circle cx="3" cy="11" r="0.9" fill="#FFFFFF"/><circle cx="9" cy="11" r="0.9" fill="#FFFFFF"/><circle cx="15" cy="11" r="0.9" fill="#FFFFFF"/><circle cx="21" cy="11" r="0.9" fill="#FFFFFF"/><circle cx="3" cy="18" r="0.9" fill="#FFFFFF"/><circle cx="9" cy="18" r="0.9" fill="#FFFFFF"/><circle cx="15" cy="18" r="0.9" fill="#FFFFFF"/><circle cx="21" cy="18" r="0.9" fill="#FFFFFF"/></svg>
